# xmcd
#
# Track frame offsets: 
#        150
#        16792
#        38605
#        55097
#        68855
#        86167
#        100575
#        116312
#        139685
#        151930
#        167977
#
# Disc length: 2396 seconds
#
# Revision: 1
# Processed by: cddbd v1.5PL3 Copyright (c) Steve Scherf et al.
# Submitted via: ExactAudioCopy v0.90b4
#
DISCID=7f095a0b
DTITLE=Clay Walker - Christmas
DYEAR=2002
DGENRE=Christmas
TTITLE0=Silent Night/Away In A Manger
TTITLE1=Mary Did You Know
TTITLE2=O Come All Ye Faithful
TTITLE3=Go Tell It On The Mountain
TTITLE4=I'll Be Home For Christmas
TTITLE5=Rudolph The Red-Nosed Reindeer 
TTITLE6=Winter Wonderland
TTITLE7=Please Come Home For Christmas
TTITLE8=Frosty The Snowman
TTITLE9=White Christmas
TTITLE10=Feliz Navidad
EXTD=
EXTT0=
EXTT1=
EXTT2=
EXTT3=
EXTT4=
EXTT5=
EXTT6=
EXTT7=
EXTT8=
EXTT9=
EXTT10=
PLAYORDER=
